<svg aria-hidden="true" style="position:absolute;width:0;height:0" xmlns="http://www.w3.org/2000/svg" overflow="hidden"><defs><symbol id="icon-scroll-bar" viewBox="0 0 32 32"><path d="M12.4 4C8.5 5.6 7 9 7 16.2c0 5.6.4 7.1 2.4 9.5 3.4 3.9 9.8 3.9 13.2 0 2-2.4 2.4-3.9 2.4-9.7 0-5.7-.4-7.3-2.2-9.4-2.5-2.9-7.2-4-10.4-2.6zm9.2 3.1c1.5 1.6 1.9 3.6 1.9 8.9 0 8.3-1.8 11-7.5 11s-7.5-2.7-7.5-11c0-5.3.4-7.3 1.9-8.9 2.6-2.9 8.6-2.9 11.2 0z"/><path d="M15 10.1c0 2.7-.2 3-1.5 1.9-2.3-1.9-1.8.4.5 2.5 1.9 1.7 2.1 1.7 4 0 2.3-2.1 2.8-4.4.5-2.5-1.3 1.1-1.5.8-1.5-1.9 0-1.7-.4-3.1-1-3.1-.5 0-1 1.4-1 3.1z"/></symbol></defs></svg>